<svg width="1024" height="1024" viewBox="0 0 1024 1024" fill="none" xmlns="http://www.w3.org/2000/svg" role="img" aria-labelledby="title desc">
  <title id="title">Rebel BJJ Logo</title>
  <desc id="desc">A punk-inspired logo for Rebel BJJ and Phantom Mat Pass, combining a mask, grappling mat, playing cards, and Solana proof lines.</desc>
  <defs>
    <linearGradient id="redSlash" x1="118" y1="133" x2="918" y2="913" gradientUnits="userSpaceOnUse">
      <stop stop-color="#FF1144"/>
      <stop offset="0.48" stop-color="#D9002E"/>
      <stop offset="1" stop-color="#720015"/>
    </linearGradient>
    <linearGradient id="solana" x1="276" y1="254" x2="750" y2="765" gradientUnits="userSpaceOnUse">
      <stop stop-color="#14F195"/>
      <stop offset="0.5" stop-color="#80ECFF"/>
      <stop offset="1" stop-color="#9945FF"/>
    </linearGradient>
    <filter id="hardShadow" x="-20%" y="-20%" width="140%" height="140%" color-interpolation-filters="sRGB">
      <feDropShadow dx="24" dy="26" stdDeviation="0" flood-color="#050505" flood-opacity="1"/>
      <feDropShadow dx="-8" dy="12" stdDeviation="0" flood-color="#FFDF3D" flood-opacity="0.85"/>
    </filter>
    <clipPath id="badgeClip">
      <path d="M512 54L891 192L826 726L512 970L198 726L133 192L512 54Z"/>
    </clipPath>
  </defs>
  <rect width="1024" height="1024" fill="#050505"/>
  <g clip-path="url(#badgeClip)">
    <rect x="67" y="42" width="890" height="948" fill="#0B0B0D"/>
    <path d="M-22 747L704 -12H1046L309 795L-22 747Z" fill="url(#redSlash)"/>
    <path d="M165 195L902 98L846 195L122 288L165 195Z" fill="#FFDF3D"/>
    <path d="M96 820L810 775L901 914L189 954L96 820Z" fill="#F7F1DD"/>
    <path d="M133 192L512 54L891 192L826 726L512 970L198 726L133 192Z" stroke="#F7F1DD" stroke-width="34"/>
    <path d="M133 192L512 54L891 192L826 726L512 970L198 726L133 192Z" stroke="#050505" stroke-width="13"/>
  </g>
  <g filter="url(#hardShadow)">
    <path d="M298 316C347 255 420 225 512 225C604 225 677 255 726 316C764 364 781 425 777 497C772 584 739 651 679 699C630 738 574 758 512 758C450 758 394 738 345 699C285 651 252 584 247 497C243 425 260 364 298 316Z" fill="#F7F1DD"/>
    <path d="M309 494C349 425 419 389 512 389C605 389 675 425 715 494C693 568 627 609 512 609C397 609 331 568 309 494Z" fill="#050505"/>
    <path d="M353 459C380 425 422 408 480 408C460 470 416 505 348 511C343 496 345 478 353 459Z" fill="#F7F1DD"/>
    <path d="M671 459C644 425 602 408 544 408C564 470 608 505 676 511C681 496 679 478 671 459Z" fill="#F7F1DD"/>
    <path d="M412 673C460 695 564 695 612 673" stroke="#050505" stroke-width="26" stroke-linecap="round"/>
    <path d="M368 294L314 430L236 390L290 276L368 294Z" fill="#050505"/>
    <path d="M656 294L710 430L788 390L734 276L656 294Z" fill="#050505"/>
  </g>
  <g>
    <rect x="274" y="697" width="120" height="170" rx="20" transform="rotate(-16 274 697)" fill="#F7F1DD" stroke="#050505" stroke-width="16"/>
    <text x="306" y="778" transform="rotate(-16 306 778)" fill="#FF1144" font-family="Arial Black, Impact, sans-serif" font-size="78" font-weight="900">A</text>
    <path d="M340 806L358 834L321 836L340 806Z" fill="#FF1144"/>
    <rect x="628" y="667" width="120" height="170" rx="20" transform="rotate(15 628 667)" fill="#F7F1DD" stroke="#050505" stroke-width="16"/>
    <text x="666" y="748" transform="rotate(15 666 748)" fill="#050505" font-family="Arial Black, Impact, sans-serif" font-size="78" font-weight="900">K</text>
    <path d="M704 811C728 791 761 814 740 842C717 872 676 843 704 811Z" fill="#050505"/>
  </g>
  <g>
    <path d="M336 257H689L649 297H296L336 257Z" fill="url(#solana)"/>
    <path d="M296 736H649L689 776H336L296 736Z" fill="url(#solana)"/>
    <path d="M368 789H721L681 829H328L368 789Z" fill="url(#solana)"/>
  </g>
  <g>
    <rect x="196" y="838" width="632" height="120" rx="0" fill="#050505" stroke="#F7F1DD" stroke-width="10"/>
    <text x="512" y="895" text-anchor="middle" fill="#F7F1DD" font-family="Arial Black, Impact, sans-serif" font-size="62" font-weight="900" letter-spacing="2">REBEL BJJ</text>
    <rect x="312" y="912" width="400" height="32" fill="#FFDF3D"/>
    <text x="512" y="936" text-anchor="middle" fill="#050505" font-family="Arial Black, Impact, sans-serif" font-size="28" font-weight="900" letter-spacing="4">MAT PASS</text>
  </g>
</svg>
